HIERARCHY
ROOT Hips
{
	OFFSET 0.000000 0.000000 0.000000
	CHANNELS 6 Xposition Yposition Zposition Zrotation Yrotation Xrotation 
	JOINT LHipJoint
	{
		OFFSET 0.000000 0.000000 0.000000
		CHANNELS 3 Zrotation Yrotation Xrotation
		JOINT LeftUpLeg
		{
			OFFSET 1.363060 -1.794630 0.839290
			CHANNELS 3 Zrotation Yrotation Xrotation
			JOINT LeftLeg
			{
				OFFSET 2.448110 -6.726130 0.000000
				CHANNELS 3 Zrotation Yrotation Xrotation
				JOINT LeftFoot
				{
					OFFSET 2.562200 -7.039590 0.000000
					CHANNELS 3 Zrotation Yrotation Xrotation
					JOINT LeftToeBase
					{
						OFFSET 0.157640 -0.433110 2.322550
						CHANNELS 3 Zrotation Yrotation Xrotation
						End Site
						{
							OFFSET 0.000000 0.000000 0.000000
						}
					}
				}
			}
		}
	}
	JOINT RHipJoint
	{
		OFFSET 0.000000 0.000000 0.000000
		CHANNELS 3 Zrotation Yrotation Xrotation
		JOINT RightUpLeg
		{
			OFFSET -1.305520 -1.794630 0.839290
			CHANNELS 3 Zrotation Yrotation Xrotation
			JOINT RightLeg
			{
				OFFSET -2.542530 -6.985550 0.000000
				CHANNELS 3 Zrotation Yrotation Xrotation
				JOINT RightFoot
				{
					OFFSET -2.568260 -7.056230 0.000000
					CHANNELS 3 Zrotation Yrotation Xrotation
					JOINT RightToeBase
					{
						OFFSET -0.164730 -0.452590 2.363150
						CHANNELS 3 Zrotation Yrotation Xrotation
						End Site
						{
							OFFSET 0.000000 0.000000 0.000000
						}
					}
				}
			}
		}
	}
}
MOTION
Frames: 17
Frame Time: 0.008333
5.157158 17.329127 0.901491 -140.622893 -85.680202 150.377105 -10.374405 3.118743 2.269400 -5.761897 17.912132 -16.341551 -2.803790 -1.221116 1.459062 0.411624 2.825208 -1.018090 0.442500 0.000000 -28.556900 9.785325 -2.435832 4.807932 7.730590 0.417737 -9.819870 2.744161 2.174354 -3.783553 -0.537027 -5.531443 -0.196943 -1.697200 -0.000000 -34.177200
5.150944 17.330313 0.898378 -111.320983 -87.092496 121.279640 -10.303918 2.761682 2.312077 -5.685189 16.946947 -16.488584 -2.759092 -1.394283 1.494279 0.318275 2.417036 -0.793348 0.435000 0.000000 -28.592000 9.848799 -2.786700 4.864250 7.908153 -0.066627 -10.068865 2.664431 2.042638 -3.841419 -0.698972 -6.304882 -0.537649 -1.810000 0.000000 -33.800501
5.145229 17.331416 0.895294 -65.867662 -88.253446 76.044524 -11.067383 2.475173 2.426101 -5.980071 16.043464 -16.685022 -2.709058 -1.479517 1.414024 0.257686 2.120202 -0.559477 0.426100 0.000001 -28.619700 9.102559 -3.073188 4.828779 7.689517 -0.490731 -10.251602 2.636422 2.011266 -3.838505 -0.818204 -6.960507 -0.861072 -1.923200 0.000000 -33.392400
5.140310 17.331979 0.895232 -27.533316 -88.475379 37.959475 -11.796505 2.769234 2.962116 -6.092877 14.411805 -17.189563 -2.628050 -1.303750 1.365891 0.315163 2.191889 -0.581260 0.421400 0.000000 -28.580900 8.347326 -2.785441 4.408694 7.737157 -1.775292 -10.406943 2.751548 2.222784 -3.497314 -0.746807 -7.094591 -1.068296 -1.997700 0.000000 -32.934800
5.137735 17.332810 0.891765 -20.310318 -87.986120 30.963571 -11.756504 2.880592 3.145370 -6.096677 13.726325 -17.428793 -2.626819 -1.265622 1.153881 0.304113 2.024618 -0.413949 0.412800 0.000000 -28.599500 8.364028 -2.646536 4.308166 7.811375 -2.016807 -10.548680 2.733360 2.289504 -3.399321 -0.790947 -7.579643 -1.242003 -2.098900 0.000000 -32.504600
5.136387 17.333637 0.888095 -15.921510 -87.315396 26.830693 -11.672622 2.938111 3.299428 -6.087060 13.045865 -17.682342 -2.626944 -1.252651 0.955267 0.283224 1.831122 -0.224503 0.403599 0.000000 -28.620300 8.424967 -2.553010 4.230061 7.907811 -2.254106 -10.728173 2.707632 2.334854 -3.350814 -0.849649 -8.084296 -1.406643 -2.197000 -0.000000 -32.058200
5.137254 17.334520 0.883949 -12.933159 -86.573271 24.102903 -11.581068 2.959593 3.421119 -6.081099 12.391433 -17.915610 -2.627883 -1.252583 0.750772 0.257490 1.632687 -0.011348 0.394701 -0.000000 -28.642100 8.497356 -2.483197 4.151446 7.995924 -2.495597 -10.911071 2.678135 2.365751 -3.335635 -0.914077 -8.571033 -1.554554 -2.286599 -0.000000 -31.613599
5.140342 17.335643 0.879296 -10.727391 -85.809661 22.165366 -11.491275 2.955228 3.514290 -6.087052 11.769589 -18.138351 -2.630362 -1.259934 0.542344 0.229756 1.441119 0.222048 0.386700 -0.000000 -28.667500 8.571286 -2.426837 4.070049 8.069288 -2.730894 -11.100060 2.646900 2.387257 -3.347843 -0.981391 -9.033093 -1.680895 -2.368500 -0.000000 -31.174200
5.145620 17.337166 0.874065 -8.988816 -85.053523 20.702345 -11.405643 2.930521 3.579376 -6.108240 11.185529 -18.348617 -2.634512 -1.271716 0.330150 0.201972 1.266759 0.474593 0.380500 0.000000 -28.696300 8.644577 -2.378226 3.983020 8.124000 -2.957278 -11.292317 2.614807 2.401063 -3.382484 -1.049162 -9.462141 -1.780981 -2.442800 0.000000 -30.745200
5.153318 17.339269 0.868140 -7.537436 -84.324820 19.526437 -11.324606 2.888439 3.614598 -6.145577 10.644805 -18.536547 -2.640033 -1.285823 0.114386 0.175546 1.118028 0.745905 0.377000 -0.000000 -28.726800 8.717412 -2.333682 3.886479 8.156391 -3.176316 -11.480229 2.582001 2.407016 -3.433810 -1.115082 -9.849848 -1.851758 -2.509100 0.000000 -30.334300
5.163529 17.342144 0.861506 -6.277491 -83.636727 18.535228 -11.248559 2.830650 3.619245 -6.199495 10.151616 -18.696839 -2.646534 -1.300975 -0.102663 0.151527 1.001524 1.034395 0.377300 0.000000 -28.756400 8.789480 -2.291509 3.779089 8.165391 -3.387274 -11.658943 2.548710 2.404897 -3.497865 -1.177555 -10.191358 -1.891245 -2.567400 0.000000 -29.945400
5.176150 17.345894 0.854107 -5.143105 -83.000523 17.657737 -11.177894 2.758817 3.592515 -6.268949 9.710887 -18.821657 -2.653598 -1.316115 -0.318127 0.130725 0.922235 1.337933 0.382200 -0.000001 -28.780700 8.860715 -2.250944 3.659623 8.150282 -3.590710 -11.821419 2.515041 2.394255 -3.570871 -1.234974 -10.481838 -1.897521 -2.618000 0.000001 -29.582300
5.191152 17.350605 0.845980 -4.108775 -82.425637 16.860766 -11.113690 2.674012 3.533302 -6.352926 9.334459 -18.910791 -2.661421 -1.330048 -0.521792 0.113000 0.876130 1.650021 0.391200 -0.000000 -28.794300 8.929850 -2.212027 3.529014 8.112823 -3.783195 -11.961818 2.481354 2.375115 -3.650673 -1.286702 -10.719595 -1.870199 -2.660800 -0.000000 -29.244800
5.208374 17.356307 0.837087 -3.139810 -81.920937 16.104984 -11.056202 2.577787 3.442820 -6.448249 9.016622 -18.953400 -2.668423 -1.342388 -0.716318 0.099967 0.875693 1.968317 0.406600 -0.000000 -28.793800 8.996688 -2.174288 3.386442 8.052318 -3.963936 -12.073200 2.447607 2.347241 -3.734962 -1.331772 -10.902155 -1.808308 -2.695700 0.000000 -28.937500
5.227628 17.362920 0.827497 -2.230117 -81.493841 15.379765 -11.006523 2.470999 3.320568 -6.552105 8.766749 -18.951878 -2.674602 -1.352264 -0.891147 0.091446 0.916404 2.284333 0.428000 0.000000 -28.774300 9.059726 -2.138227 3.233650 7.972107 -4.127652 -12.150496 2.414255 2.311223 -3.824485 -1.370279 -11.029737 -1.712182 -2.722400 0.000000 -28.658700
5.248671 17.370334 0.817275 -1.372184 -81.148934 14.676491 -10.965270 2.354180 3.167050 -6.660640 8.586376 -18.908356 -2.679434 -1.359333 -1.039423 0.087749 0.998645 2.590353 0.455800 -0.000001 -28.733900 9.117831 -2.104321 3.072444 7.875227 -4.268494 -12.191211 2.381623 2.267812 -3.921098 -1.403033 -11.103362 -1.582759 -2.740300 -0.000000 -28.408000
5.271246 17.378362 0.806479 -0.558505 -80.887522 13.989315 -10.932733 2.227034 2.982732 -6.770012 8.473939 -18.828048 -2.682465 -1.363631 -1.155165 0.089132 1.123104 2.879419 0.490300 0.000000 -28.670800 9.170043 -2.073238 2.904804 7.765439 -4.379863 -12.196041 2.349850 2.217749 -4.027837 -1.430753 -11.126247 -1.420763 -2.749200 -0.000000 -28.184401
